<svg width="664" height="75" viewBox="0 0 664 75" fill="none" xmlns="http://www.w3.org/2000/svg">
<path d="M187.981 50.0909C182.97 50.0909 178.809 46.5247 177.873 41.7672L166.663 43.933C168.575 53.9557 177.407 61.514 187.981 61.514C194.01 61.514 199.445 59.0511 203.396 55.1015L194.222 48.01C192.481 49.2846 190.316 50.0909 187.981 50.0909ZM187.981 29.4955C190.316 29.4955 192.481 30.3017 194.222 31.6186L203.396 24.5272C199.445 20.579 194.01 18.1149 187.981 18.1149C177.407 18.1149 168.575 25.6745 166.663 35.6957L177.873 37.904C178.766 33.1054 182.928 29.4955 187.981 29.4955ZM342.634 51.6201C336.945 51.6201 332.783 47.4583 332.146 41.3428V38.1161C332.783 32.0857 336.945 27.9253 342.634 27.9253C349.133 27.9253 353.718 32.8086 353.718 39.7287C353.675 46.7369 349.133 51.6201 342.634 51.6201ZM345.99 18.1149C340.214 18.1149 335.417 20.6201 332.104 24.8667V19.0499H320.384V74.3374H332.104V54.6771C335.375 59.0087 340.214 61.514 345.99 61.514C357.073 61.514 365.098 52.5113 365.098 39.7712C365.098 27.0748 357.073 18.1149 345.99 18.1149ZM392.446 51.6201C386.203 51.6201 380.98 46.1852 380.98 39.7287C380.98 33.3176 386.203 27.9253 392.446 27.9253C398.602 27.9253 403.827 33.3176 403.827 39.7287C403.869 46.1852 398.645 51.6201 392.446 51.6201ZM392.446 18.1149C380.089 18.1149 369.727 27.9676 369.727 39.7712C369.727 51.5777 380.089 61.514 392.446 61.514C404.718 61.514 414.993 51.5777 414.993 39.7712C414.993 27.9676 404.718 18.1149 392.446 18.1149ZM420.557 60.5379H432.276V4.4835H420.557V60.5379ZM476.78 34.8029C471.174 33.2753 469.476 32.6386 469.476 30.3883C469.476 28.9438 471.472 27.883 474.36 27.883C477.883 27.883 482.215 29.241 485.995 31.5763L490.708 23.2542C486.122 20.1957 480.261 18.1149 474.36 18.1149C464.593 18.1149 458.096 23.721 458.138 31.5763C458.223 39.7712 464.805 42.1082 473.297 44.1892C477.545 45.2925 480.601 46.1003 480.601 48.6889C480.601 50.5153 478.35 51.8323 475.208 51.8323C469.689 51.8323 465.017 49.8363 461.322 47.1612L456.312 55.2288C461.28 59.2209 468.331 61.4715 474.996 61.4715C485.188 61.4715 491.854 56.2488 491.854 48.0949C491.854 39.0498 483.914 36.6293 476.78 34.8029ZM439.963 60.5379H451.683V19.0499H439.963V60.5379ZM445.866 0.705223C442.256 0.705223 439.454 3.67725 439.454 6.94765C439.454 10.4718 442.256 13.3604 445.866 13.3604C449.305 13.3604 452.107 10.4718 452.107 6.94765C452.152 3.67725 449.348 0.705223 445.866 0.705223ZM304.247 4.52734H292.527L288.153 13.4438H299.873L304.247 4.52734ZM285.096 35.1866C286.625 31.0246 290.319 28.4343 294.735 28.4343C299.493 28.4343 302.506 31.0673 303.653 35.1866H285.096ZM294.269 18.0737C282.166 18.0737 272.909 27.1598 272.909 39.6454C272.909 52.384 282.548 61.4715 294.905 61.4715C301.02 61.4715 308.154 58.9238 311.849 55.059L304.375 47.4159C302.124 49.5816 298.133 51.1094 294.82 51.1094C289.937 51.1094 286.327 48.0524 284.969 43.5511H314.864C314.864 27.9676 307.262 18.0737 294.269 18.0737ZM252.356 18.1149C246.964 18.1149 242.335 20.4929 239.83 24.2727V19.0499H228.109V60.5379H239.83V35.9503C239.83 31.449 243.693 27.9676 248.576 27.9676C253.249 27.9676 256.433 31.4913 256.433 36.6293V60.5379H267.727V34.1239C267.771 24.7395 261.359 18.1149 252.356 18.1149ZM214.011 0.662544C210.401 0.662544 207.599 3.63457 207.599 6.90381C207.599 10.4291 210.401 13.3177 214.011 13.3177C217.45 13.3177 220.254 10.4291 220.254 6.90381C220.254 3.63457 217.45 0.662544 214.011 0.662544ZM208.066 60.5379H219.786V19.0499H208.066V60.5379Z" fill="white"/>
<path d="M496.611 59.1784C496.611 60.5804 495.507 61.6837 494.062 61.6837C492.619 61.6837 491.472 60.5804 491.472 59.1784C491.472 57.7765 492.619 56.6732 494.062 56.6732C495.507 56.7156 496.611 57.8205 496.611 59.1784ZM492.11 59.1784C492.11 60.2833 492.915 61.1745 494.062 61.1745C495.167 61.1745 495.973 60.2833 495.973 59.1784C495.973 58.0735 495.167 57.1824 494.062 57.1824C492.959 57.1824 492.11 58.0735 492.11 59.1784ZM493.68 60.4955H493.086V57.9887C493.298 57.9462 493.638 57.9038 494.062 57.9038C494.529 57.9038 494.741 57.9887 494.911 58.0735C495.04 58.2009 495.167 58.3721 495.167 58.6252C495.167 58.8814 494.953 59.0935 494.656 59.2209V59.2633C494.911 59.3482 495.04 59.5179 495.123 59.8574C495.209 60.2409 495.252 60.4091 495.294 60.4955H494.656C494.573 60.4091 494.529 60.1545 494.444 59.8999C494.403 59.6452 494.232 59.5179 493.935 59.5179H493.68V60.4955ZM493.68 59.0935H493.935C494.274 59.0935 494.529 58.9662 494.529 58.7116C494.529 58.4994 494.361 58.3282 493.977 58.3282C493.808 58.3282 493.723 58.3282 493.638 58.3721L493.68 59.0935Z" fill="white"/>
</svg>
